<svg width="885" height="183" viewBox="0 0 885 183" fill="none" xmlns="http://www.w3.org/2000/svg">
<rect width="885" height="183" fill="white"/>
<path d="M753.173 66.7744V77.7695C753.161 78.1562 753.155 78.4727 753.155 78.7188C753.155 78.959 753.132 79.249 753.085 79.5889C753.044 79.9346 752.985 80.2246 752.909 80.459C752.839 80.6992 752.733 80.9658 752.593 81.2588C752.452 81.5518 752.285 81.8066 752.092 82.0234C751.623 82.5508 751.034 82.9932 750.325 83.3506L749.64 82.4805C750.325 81.9531 750.82 81.3789 751.125 80.7578C751.43 80.1426 751.582 79.3545 751.582 78.3936V66.7744H753.173ZM760.081 75.291C757.925 75.291 756.847 75.8271 756.847 76.8994C756.847 77.1865 756.935 77.4531 757.11 77.6992C757.292 77.9453 757.497 78.0684 757.726 78.0684H758.068C759.357 78.0684 760.046 77.3916 760.134 76.0381V75.291H760.081ZM756.038 71.1514C757.093 70.7822 757.957 70.5977 758.631 70.5977C759.305 70.5977 759.894 70.7646 760.397 71.0986C760.901 71.4326 761.238 71.9277 761.408 72.584C761.502 72.9531 761.549 73.7061 761.549 74.8428V77.5938C761.549 78.1094 761.59 78.5781 761.672 79H760.248C760.172 78.7598 760.134 78.4873 760.134 78.1826V78.1211C759.987 78.2969 759.826 78.4492 759.65 78.5781C759.1 78.9824 758.514 79.1846 757.893 79.1846C756.85 79.1846 756.132 78.8125 755.739 78.0684C755.534 77.6992 755.432 77.3213 755.432 76.9346C755.432 75.9092 756.032 75.168 757.233 74.7109C757.954 74.4355 758.868 74.2979 759.976 74.2979H760.134V73.4102C760.134 72.7656 760.011 72.3262 759.765 72.0918C759.478 71.8223 759 71.6875 758.332 71.6875C757.664 71.6875 756.923 71.875 756.108 72.25L756.038 71.1514ZM769.661 70.7559H771.085L767.42 79H766.488L762.806 70.7559H764.326L766.998 76.6621L769.661 70.7559ZM776.587 75.291C774.431 75.291 773.353 75.8271 773.353 76.8994C773.353 77.1865 773.44 77.4531 773.616 77.6992C773.798 77.9453 774.003 78.0684 774.231 78.0684H774.574C775.863 78.0684 776.552 77.3916 776.64 76.0381V75.291H776.587ZM772.544 71.1514C773.599 70.7822 774.463 70.5977 775.137 70.5977C775.811 70.5977 776.399 70.7646 776.903 71.0986C777.407 71.4326 777.744 71.9277 777.914 72.584C778.008 72.9531 778.055 73.7061 778.055 74.8428V77.5938C778.055 78.1094 778.096 78.5781 778.178 79H776.754C776.678 78.7598 776.64 78.4873 776.64 78.1826V78.1211C776.493 78.2969 776.332 78.4492 776.156 78.5781C775.605 78.9824 775.02 79.1846 774.398 79.1846C773.355 79.1846 772.638 78.8125 772.245 78.0684C772.04 77.6992 771.938 77.3213 771.938 76.9346C771.938 75.9092 772.538 75.168 773.739 74.7109C774.46 74.4355 775.374 74.2979 776.481 74.2979H776.64V73.4102C776.64 72.7656 776.517 72.3262 776.271 72.0918C775.983 71.8223 775.506 71.6875 774.838 71.6875C774.17 71.6875 773.429 71.875 772.614 72.25L772.544 71.1514Z" fill="black"/>
<path d="M76.27 65.168C75.3833 65.168 74.6647 64.9627 74.114 64.552C73.5727 64.132 73.2693 63.558 73.204 62.83H74.422C74.478 63.2127 74.6647 63.5253 74.982 63.768C75.3087 64.0107 75.7473 64.132 76.298 64.132C76.8207 64.132 77.208 64.02 77.46 63.796C77.7213 63.572 77.852 63.3153 77.852 63.026C77.852 62.634 77.698 62.368 77.39 62.228C77.082 62.0787 76.62 61.9667 76.004 61.892C75.2667 61.808 74.6553 61.6073 74.17 61.29C73.6847 60.9727 73.442 60.4967 73.442 59.862C73.442 59.2927 73.68 58.8213 74.156 58.448C74.632 58.0747 75.2807 57.888 76.102 57.888C76.914 57.888 77.5533 58.0747 78.02 58.448C78.4867 58.812 78.7527 59.3347 78.818 60.016H77.656C77.628 59.68 77.4647 59.414 77.166 59.218C76.8767 59.0127 76.5127 58.91 76.074 58.91C75.6167 58.91 75.262 58.9987 75.01 59.176C74.758 59.344 74.632 59.568 74.632 59.848C74.632 60.128 74.772 60.3613 75.052 60.548C75.3413 60.7253 75.794 60.842 76.41 60.898C76.8953 60.954 77.3387 61.0473 77.74 61.178C78.1413 61.3087 78.4587 61.514 78.692 61.794C78.9347 62.074 79.056 62.466 79.056 62.97C79.0653 63.39 78.9487 63.768 78.706 64.104C78.4727 64.4307 78.146 64.692 77.726 64.888C77.306 65.0747 76.8207 65.168 76.27 65.168ZM84.5945 65.168C83.9412 65.168 83.3625 65.0187 82.8585 64.72C82.3545 64.4213 81.9579 64.0013 81.6685 63.46C81.3792 62.9093 81.2345 62.2653 81.2345 61.528C81.2345 60.7907 81.3792 60.1513 81.6685 59.61C81.9579 59.0593 82.3545 58.6347 82.8585 58.336C83.3625 58.0373 83.9412 57.888 84.5945 57.888C85.2479 57.888 85.8265 58.0373 86.3305 58.336C86.8345 58.6347 87.2312 59.0593 87.5205 59.61C87.8099 60.1513 87.9545 60.7907 87.9545 61.528C87.9545 62.2653 87.8099 62.9093 87.5205 63.46C87.2312 64.0013 86.8345 64.4213 86.3305 64.72C85.8265 65.0187 85.2479 65.168 84.5945 65.168ZM84.5945 64.048C84.9959 64.048 85.3599 63.9593 85.6865 63.782C86.0132 63.6047 86.2699 63.3293 86.4565 62.956C86.6525 62.5827 86.7505 62.1067 86.7505 61.528C86.7505 60.9493 86.6525 60.4733 86.4565 60.1C86.2699 59.7267 86.0132 59.4513 85.6865 59.274C85.3599 59.0967 84.9959 59.008 84.5945 59.008C84.2025 59.008 83.8432 59.0967 83.5165 59.274C83.1899 59.4513 82.9285 59.7267 82.7325 60.1C82.5365 60.4733 82.4385 60.9493 82.4385 61.528C82.4385 62.396 82.6485 63.0353 83.0685 63.446C83.4885 63.8473 83.9972 64.048 84.5945 64.048ZM90.0771 68.08V67.002H90.9311C91.2857 67.002 91.5377 66.932 91.6871 66.792C91.8364 66.652 91.9111 66.4047 91.9111 66.05V59.064H90.1891V58.056H91.9111V56.95C91.9111 56.2313 92.0837 55.7133 92.4291 55.396C92.7744 55.0787 93.2971 54.92 93.9971 54.92H95.6631V55.984H94.0671C93.7217 55.984 93.4697 56.0587 93.3111 56.208C93.1617 56.348 93.0871 56.5953 93.0871 56.95V58.056H95.6631V59.064H93.0871V66.05C93.0871 66.7687 92.9144 67.2867 92.5691 67.604C92.2237 67.9213 91.7057 68.08 91.0151 68.08H90.0771ZM102.112 65C101.477 65 100.978 64.846 100.614 64.538C100.25 64.23 100.068 63.6747 100.068 62.872V59.064H98.3036V58.056H99.3536C99.8296 58.056 100.105 57.8227 100.18 57.356L100.376 56.278H101.244V58.056H104.016V59.064H101.244V62.872C101.244 63.264 101.332 63.5393 101.51 63.698C101.696 63.8567 102.014 63.936 102.462 63.936H104.016V65H102.112ZM107.314 65L105.774 58.056H106.936L107.93 63.25L109.12 58.056H110.436L111.626 63.25L112.62 58.056H113.796L112.242 65H111.038L109.778 59.61L108.518 65H107.314ZM117.585 65.168C117.034 65.168 116.577 65.07 116.213 64.874C115.849 64.678 115.578 64.4213 115.401 64.104C115.223 63.7773 115.135 63.4227 115.135 63.04C115.135 62.3307 115.391 61.794 115.905 61.43C116.427 61.0567 117.123 60.87 117.991 60.87H119.895V60.73C119.895 59.5167 119.339 58.91 118.229 58.91C117.781 58.91 117.403 59.008 117.095 59.204C116.796 59.4 116.605 59.708 116.521 60.128H115.317C115.363 59.6613 115.517 59.26 115.779 58.924C116.049 58.588 116.395 58.3313 116.815 58.154C117.235 57.9767 117.706 57.888 118.229 57.888C119.218 57.888 119.937 58.1493 120.385 58.672C120.842 59.1853 121.071 59.8713 121.071 60.73V65H120.063L119.965 63.922H119.867C119.661 64.258 119.386 64.552 119.041 64.804C118.705 65.0467 118.219 65.168 117.585 65.168ZM117.795 64.132C118.243 64.132 118.621 64.0247 118.929 63.81C119.246 63.5953 119.484 63.3107 119.643 62.956C119.811 62.6013 119.895 62.214 119.895 61.794H118.089C117.454 61.794 117.006 61.9013 116.745 62.116C116.493 62.3307 116.367 62.6153 116.367 62.97C116.367 63.334 116.488 63.6187 116.731 63.824C116.973 64.0293 117.328 64.132 117.795 64.132ZM123.543 65V63.992H125.321V59.414C125.321 59.1807 125.209 59.064 124.985 59.064H123.725V58.056H125.419C125.727 58.056 125.975 58.14 126.161 58.308C126.348 58.476 126.441 58.7233 126.441 59.05V59.344H126.497C126.609 58.8773 126.819 58.518 127.127 58.266C127.445 58.014 127.883 57.888 128.443 57.888H129.717V59.134H128.275C127.706 59.134 127.267 59.3253 126.959 59.708C126.651 60.0813 126.497 60.562 126.497 61.15V63.992H128.681V65H123.543ZM135.032 65.168C134.378 65.168 133.8 65.0187 133.296 64.72C132.801 64.412 132.409 63.9873 132.12 63.446C131.83 62.8953 131.686 62.256 131.686 61.528C131.686 60.8 131.826 60.1653 132.106 59.624C132.395 59.0733 132.792 58.6487 133.296 58.35C133.8 58.042 134.388 57.888 135.06 57.888C135.732 57.888 136.306 58.042 136.782 58.35C137.258 58.6487 137.622 59.0453 137.874 59.54C138.126 60.0347 138.252 60.5667 138.252 61.136C138.252 61.2387 138.247 61.3413 138.238 61.444C138.238 61.5467 138.238 61.6633 138.238 61.794H132.848C132.876 62.3073 132.992 62.7367 133.198 63.082C133.412 63.418 133.678 63.67 133.996 63.838C134.322 64.006 134.668 64.09 135.032 64.09C135.545 64.09 135.946 63.9827 136.236 63.768C136.525 63.5533 136.744 63.2547 136.894 62.872H138.056C137.897 63.516 137.566 64.062 137.062 64.51C136.558 64.9487 135.881 65.168 135.032 65.168ZM135.032 58.938C134.49 58.938 134.014 59.1013 133.604 59.428C133.202 59.7547 132.955 60.212 132.862 60.8H137.09C137.052 60.2213 136.842 59.7687 136.46 59.442C136.086 59.106 135.61 58.938 135.032 58.938ZM152.479 65C151.844 65 151.345 64.846 150.981 64.538C150.617 64.23 150.435 63.6747 150.435 62.872V59.064H148.671V58.056H149.721C150.197 58.056 150.472 57.8227 150.547 57.356L150.743 56.278H151.611V58.056H154.383V59.064H151.611V62.872C151.611 63.264 151.699 63.5393 151.877 63.698C152.063 63.8567 152.381 63.936 152.829 63.936H154.383V65H152.479ZM160.215 65.168C159.562 65.168 158.983 65.0187 158.479 64.72C157.985 64.412 157.593 63.9873 157.303 63.446C157.014 62.8953 156.869 62.256 156.869 61.528C156.869 60.8 157.009 60.1653 157.289 59.624C157.579 59.0733 157.975 58.6487 158.479 58.35C158.983 58.042 159.571 57.888 160.243 57.888C160.915 57.888 161.489 58.042 161.965 58.35C162.441 58.6487 162.805 59.0453 163.057 59.54C163.309 60.0347 163.435 60.5667 163.435 61.136C163.435 61.2387 163.431 61.3413 163.421 61.444C163.421 61.5467 163.421 61.6633 163.421 61.794H158.031C158.059 62.3073 158.176 62.7367 158.381 63.082C158.596 63.418 158.862 63.67 159.179 63.838C159.506 64.006 159.851 64.09 160.215 64.09C160.729 64.09 161.13 63.9827 161.419 63.768C161.709 63.5533 161.928 63.2547 162.077 62.872H163.239C163.081 63.516 162.749 64.062 162.245 64.51C161.741 64.9487 161.065 65.168 160.215 65.168ZM160.215 58.938C159.674 58.938 159.198 59.1013 158.787 59.428C158.386 59.7547 158.139 60.212 158.045 60.8H162.273C162.236 60.2213 162.026 59.7687 161.643 59.442C161.27 59.106 160.794 58.938 160.215 58.938ZM168.61 65.168C167.723 65.168 167.005 64.9627 166.454 64.552C165.913 64.132 165.609 63.558 165.544 62.83H166.762C166.818 63.2127 167.005 63.5253 167.322 63.768C167.649 64.0107 168.087 64.132 168.638 64.132C169.161 64.132 169.548 64.02 169.8 63.796C170.061 63.572 170.192 63.3153 170.192 63.026C170.192 62.634 170.038 62.368 169.73 62.228C169.422 62.0787 168.96 61.9667 168.344 61.892C167.607 61.808 166.995 61.6073 166.51 61.29C166.025 60.9727 165.782 60.4967 165.782 59.862C165.782 59.2927 166.02 58.8213 166.496 58.448C166.972 58.0747 167.621 57.888 168.442 57.888C169.254 57.888 169.893 58.0747 170.36 58.448C170.827 58.812 171.093 59.3347 171.158 60.016H169.996C169.968 59.68 169.805 59.414 169.506 59.218C169.217 59.0127 168.853 58.91 168.414 58.91C167.957 58.91 167.602 58.9987 167.35 59.176C167.098 59.344 166.972 59.568 166.972 59.848C166.972 60.128 167.112 60.3613 167.392 60.548C167.681 60.7253 168.134 60.842 168.75 60.898C169.235 60.954 169.679 61.0473 170.08 61.178C170.481 61.3087 170.799 61.514 171.032 61.794C171.275 62.074 171.396 62.466 171.396 62.97C171.405 63.39 171.289 63.768 171.046 64.104C170.813 64.4307 170.486 64.692 170.066 64.888C169.646 65.0747 169.161 65.168 168.61 65.168ZM177.662 65C177.028 65 176.528 64.846 176.164 64.538C175.8 64.23 175.618 63.6747 175.618 62.872V59.064H173.854V58.056H174.904C175.38 58.056 175.656 57.8227 175.73 57.356L175.926 56.278H176.794V58.056H179.566V59.064H176.794V62.872C176.794 63.264 176.883 63.5393 177.06 63.698C177.247 63.8567 177.564 63.936 178.012 63.936H179.566V65H177.662ZM185.245 56.824C184.965 56.824 184.732 56.7307 184.545 56.544C184.358 56.3573 184.265 56.1333 184.265 55.872C184.265 55.6013 184.358 55.3773 184.545 55.2C184.732 55.0133 184.965 54.92 185.245 54.92C185.516 54.92 185.744 55.0133 185.931 55.2C186.127 55.3773 186.225 55.6013 186.225 55.872C186.225 56.1333 186.127 56.3573 185.931 56.544C185.744 56.7307 185.516 56.824 185.245 56.824ZM182.529 65V63.992H184.741V59.414C184.741 59.1807 184.624 59.064 184.391 59.064H182.767V58.056H184.671C185.502 58.056 185.917 58.4713 185.917 59.302V63.992H188.129V65H182.529ZM190.755 65V58.056H191.735L191.861 59.106H191.931C192.118 58.77 192.412 58.4853 192.813 58.252C193.215 58.0093 193.677 57.888 194.199 57.888C195.049 57.888 195.683 58.14 196.103 58.644C196.533 59.148 196.747 59.876 196.747 60.828V65H195.571V60.968C195.571 60.352 195.436 59.8713 195.165 59.526C194.895 59.1713 194.475 58.994 193.905 58.994C193.355 58.994 192.888 59.1853 192.505 59.568C192.123 59.9413 191.931 60.4827 191.931 61.192V65H190.755ZM201.992 62.956C201.507 62.956 201.073 62.8673 200.69 62.69L200.214 63.264C200.111 63.404 200.083 63.544 200.13 63.684C200.186 63.8147 200.321 63.88 200.536 63.88H202.37C203.201 63.88 203.873 64.0433 204.386 64.37C204.899 64.6873 205.156 65.196 205.156 65.896C205.156 66.316 205.049 66.7033 204.834 67.058C204.619 67.4127 204.279 67.6973 203.812 67.912C203.355 68.136 202.753 68.248 202.006 68.248C201.035 68.248 200.256 68.066 199.668 67.702C199.08 67.338 198.786 66.7827 198.786 66.036C198.786 65.7653 198.851 65.5133 198.982 65.28C199.122 65.056 199.295 64.8553 199.5 64.678C199.229 64.51 199.061 64.258 198.996 63.922C198.94 63.586 199.043 63.2547 199.304 62.928L199.934 62.144C199.486 61.6773 199.262 61.1033 199.262 60.422C199.262 59.974 199.369 59.5587 199.584 59.176C199.799 58.784 200.107 58.4713 200.508 58.238C200.919 58.0047 201.413 57.888 201.992 57.888C202.365 57.888 202.711 57.944 203.028 58.056H205.632V58.938L204.33 58.98V59.078C204.573 59.4793 204.694 59.9273 204.694 60.422C204.694 60.87 204.587 61.29 204.372 61.682C204.167 62.0647 203.859 62.3727 203.448 62.606C203.047 62.8393 202.561 62.956 201.992 62.956ZM201.992 61.948C202.449 61.948 202.823 61.8127 203.112 61.542C203.411 61.2713 203.56 60.898 203.56 60.422C203.56 59.946 203.411 59.5773 203.112 59.316C202.823 59.0453 202.449 58.91 201.992 58.91C201.525 58.91 201.143 59.0453 200.844 59.316C200.545 59.5773 200.396 59.946 200.396 60.422C200.396 60.898 200.545 61.2713 200.844 61.542C201.143 61.8127 201.525 61.948 201.992 61.948ZM199.948 65.994C199.948 66.4047 200.139 66.7127 200.522 66.918C200.905 67.1233 201.399 67.226 202.006 67.226C202.594 67.226 203.07 67.1093 203.434 66.876C203.807 66.6427 203.994 66.33 203.994 65.938C203.994 65.63 203.863 65.3687 203.602 65.154C203.341 64.9487 202.86 64.846 202.16 64.846H200.578C200.158 65.154 199.948 65.5367 199.948 65.994Z" fill="black"/>
<path d="M191.736 87L190.196 80.056H191.358L192.352 85.25L193.542 80.056H194.858L196.048 85.25L197.042 80.056H198.218L196.664 87H195.46L194.2 81.61L192.94 87H191.736ZM202.511 78.824C202.231 78.824 201.997 78.7307 201.811 78.544C201.624 78.3573 201.531 78.1333 201.531 77.872C201.531 77.6013 201.624 77.3773 201.811 77.2C201.997 77.0133 202.231 76.92 202.511 76.92C202.781 76.92 203.01 77.0133 203.197 77.2C203.393 77.3773 203.491 77.6013 203.491 77.872C203.491 78.1333 203.393 78.3573 203.197 78.544C203.01 78.7307 202.781 78.824 202.511 78.824ZM199.795 87V85.992H202.007V81.414C202.007 81.1807 201.89 81.064 201.657 81.064H200.033V80.056H201.937C202.767 80.056 203.183 80.4713 203.183 81.302V85.992H205.395V87H199.795ZM211.717 87C211.082 87 210.583 86.846 210.219 86.538C209.855 86.23 209.673 85.6747 209.673 84.872V81.064H207.909V80.056H208.959C209.435 80.056 209.71 79.8227 209.785 79.356L209.981 78.278H210.849V80.056H213.621V81.064H210.849V84.872C210.849 85.264 210.938 85.5393 211.115 85.698C211.302 85.8567 211.619 85.936 212.067 85.936H213.621V87H211.717ZM216.346 87V76.92H217.522V81.106C217.708 80.7513 218.016 80.462 218.446 80.238C218.875 80.0047 219.346 79.888 219.86 79.888C220.709 79.888 221.353 80.1447 221.792 80.658C222.24 81.1713 222.464 81.89 222.464 82.814V87H221.288V82.968C221.288 82.3427 221.134 81.8573 220.826 81.512C220.527 81.1667 220.107 80.994 219.566 80.994C219.192 80.994 218.852 81.078 218.544 81.246C218.236 81.414 217.988 81.6613 217.802 81.988C217.615 82.3147 217.522 82.716 217.522 83.192V87H216.346Z" fill="black"/>
<path d="M674.612 91.168C674.061 91.168 673.604 91.07 673.24 90.874C672.876 90.678 672.605 90.4213 672.428 90.104C672.251 89.7773 672.162 89.4227 672.162 89.04C672.162 88.3307 672.419 87.794 672.932 87.43C673.455 87.0567 674.15 86.87 675.018 86.87H676.922V86.73C676.922 85.5167 676.367 84.91 675.256 84.91C674.808 84.91 674.43 85.008 674.122 85.204C673.823 85.4 673.632 85.708 673.548 86.128H672.344C672.391 85.6613 672.545 85.26 672.806 84.924C673.077 84.588 673.422 84.3313 673.842 84.154C674.262 83.9767 674.733 83.888 675.256 83.888C676.245 83.888 676.964 84.1493 677.412 84.672C677.869 85.1853 678.098 85.8713 678.098 86.73V91H677.09L676.992 89.922H676.894C676.689 90.258 676.413 90.552 676.068 90.804C675.732 91.0467 675.247 91.168 674.612 91.168ZM674.822 90.132C675.27 90.132 675.648 90.0247 675.956 89.81C676.273 89.5953 676.511 89.3107 676.67 88.956C676.838 88.6013 676.922 88.214 676.922 87.794H675.116C674.481 87.794 674.033 87.9013 673.772 88.116C673.52 88.3307 673.394 88.6153 673.394 88.97C673.394 89.334 673.515 89.6187 673.758 89.824C674.001 90.0293 674.355 90.132 674.822 90.132ZM680.627 91V84.056H681.607L681.733 85.106H681.803C681.989 84.77 682.283 84.4853 682.685 84.252C683.086 84.0093 683.548 83.888 684.071 83.888C684.92 83.888 685.555 84.14 685.975 84.644C686.404 85.148 686.619 85.876 686.619 86.828V91H685.443V86.968C685.443 86.352 685.307 85.8713 685.037 85.526C684.766 85.1713 684.346 84.994 683.777 84.994C683.226 84.994 682.759 85.1853 682.377 85.568C681.994 85.9413 681.803 86.4827 681.803 87.192V91H680.627ZM691.751 91.168C691.163 91.168 690.636 91.028 690.169 90.748C689.712 90.468 689.352 90.0573 689.091 89.516C688.83 88.9653 688.699 88.298 688.699 87.514C688.699 86.7393 688.83 86.0813 689.091 85.54C689.352 84.9987 689.712 84.588 690.169 84.308C690.636 84.028 691.163 83.888 691.751 83.888C692.302 83.888 692.754 83.9953 693.109 84.21C693.473 84.4247 693.744 84.7047 693.921 85.05V80.92H695.097V91H694.131L694.005 89.922H693.921C693.734 90.3047 693.459 90.608 693.095 90.832C692.731 91.056 692.283 91.168 691.751 91.168ZM691.905 90.048C692.493 90.048 692.978 89.8427 693.361 89.432C693.744 89.012 693.935 88.3773 693.935 87.528C693.935 86.6787 693.744 86.0487 693.361 85.638C692.978 85.218 692.493 85.008 691.905 85.008C691.317 85.008 690.832 85.218 690.449 85.638C690.076 86.0487 689.889 86.6787 689.889 87.528C689.889 88.3773 690.076 89.012 690.449 89.432C690.832 89.8427 691.317 90.048 691.905 90.048Z" fill="black"/>
<path d="M725.911 82.9007C732.165 83.2652 741.773 82.6978 742 80C742 80 741.563 81.0227 736.83 81.8341C731.491 82.7503 724.905 82.6435 721 82.0558C721 82.056 721.8 82.6597 725.911 82.9007V82.9007Z" fill="black"/>
<path d="M731.38 49C731.38 49 733.798 52.6001 729.086 58.1343C725.308 62.5751 728.224 65.1065 729.085 68C726.879 65.0388 725.261 62.4317 726.346 60.0054C727.94 56.4447 732.355 54.7176 731.38 49V49Z" fill="black"/>
<path d="M739.866 77.6692C739.866 77.6692 740.825 78.4625 738.81 79.0756C734.978 80.2402 722.858 80.5913 719.492 79.1222C718.283 78.5939 720.552 77.8614 721.265 77.7068C722.01 77.5452 722.435 77.5746 722.435 77.5746C721.089 76.624 713.736 79.442 718.7 80.2503C732.238 82.4519 743.377 79.2588 739.866 77.6692V77.6692ZM725.679 67.3277C725.679 67.3277 719.515 68.7968 723.497 69.3309C725.178 69.5566 728.528 69.5048 731.651 69.242C734.203 69.0269 736.763 68.5676 736.763 68.5676C736.763 68.5676 735.864 68.9544 735.213 69.3998C728.952 71.0521 716.86 70.2825 720.342 68.5935C723.285 67.1653 725.679 67.3277 725.679 67.3277V67.3277ZM736.738 73.5288C743.101 70.2119 740.159 67.0243 738.105 67.4537C737.603 67.5586 737.377 67.65 737.377 67.65C737.377 67.65 737.564 67.3558 737.921 67.2293C741.984 65.7968 745.108 71.4556 736.61 73.697C736.61 73.6964 736.708 73.6078 736.738 73.5288V73.5288Z" fill="black"/>
<path d="M731.388 64.6628C732.903 66.4201 730.991 68 730.991 68C730.991 68 734.834 66.0005 733.07 63.4954C731.421 61.1604 730.157 60.0006 737 56C737 56.0003 726.258 58.7037 731.388 64.6628V64.6628Z" fill="black"/>
<path d="M725.031 74.9897C725.031 74.9897 723.542 75.7996 726.092 76.0729C729.181 76.4028 730.76 76.3555 734.164 75.7541C734.164 75.7541 735.061 76.2782 736.311 76.7325C728.678 79.7893 719.036 76.5552 725.031 74.9897ZM724.097 71C724.097 71 722.427 72.1559 724.979 72.4029C728.28 72.7214 730.886 72.7474 735.397 71.9358C735.397 71.9358 736.02 72.527 737 72.8499C727.773 75.3725 717.495 73.0484 724.097 71V71Z" fill="black"/>
<path d="M753.173 96.7744V107.77C753.161 108.156 753.155 108.473 753.155 108.719C753.155 108.959 753.132 109.249 753.085 109.589C753.044 109.935 752.985 110.225 752.909 110.459C752.839 110.699 752.733 110.966 752.593 111.259C752.452 111.552 752.285 111.807 752.092 112.023C751.623 112.551 751.034 112.993 750.325 113.351L749.64 112.48C750.325 111.953 750.82 111.379 751.125 110.758C751.43 110.143 751.582 109.354 751.582 108.394V96.7744H753.173ZM760.749 109.158C757.813 109.158 756.346 107.822 756.346 105.15V96.7744H757.937V104.729C757.937 105.824 758.188 106.63 758.692 107.146C759.196 107.661 759.861 107.919 760.687 107.919C762.357 107.919 763.192 106.776 763.192 104.491V96.7744H764.695V104.878C764.695 106.173 764.35 107.21 763.658 107.989C762.967 108.769 761.997 109.158 760.749 109.158ZM773.273 104.544C773.273 102.663 772.6 101.723 771.252 101.723C770.906 101.723 770.59 101.816 770.303 102.004C769.863 102.285 769.518 102.748 769.266 103.393C769.178 103.615 769.134 103.791 769.134 103.92V109H767.719V100.756H769.134V102.268C769.661 101.154 770.52 100.598 771.709 100.598C772.189 100.598 772.62 100.706 773.001 100.923C773.388 101.134 773.689 101.362 773.906 101.608C774.428 102.188 774.688 103.003 774.688 104.052V109H773.273V104.544ZM779.505 100.756V109H778.09V101.881H776.631V100.756H779.505ZM777.756 97.4951C777.756 97.2021 777.855 96.9531 778.055 96.748C778.26 96.5371 778.506 96.4316 778.793 96.4316C779.08 96.4316 779.323 96.5371 779.522 96.748C779.728 96.9531 779.83 97.2021 779.83 97.4951C779.83 97.7881 779.728 98.04 779.522 98.251C779.323 98.4561 779.08 98.5586 778.793 98.5586C778.506 98.5586 778.26 98.4561 778.055 98.251C777.855 98.04 777.756 97.7881 777.756 97.4951ZM784.576 109.158C783.182 109.158 782.484 108.385 782.484 106.838V101.881H781.025V100.756H782.484V99.0859L783.899 98.5586V100.756H785.912V101.881H783.899V106.75C783.899 107.201 784.014 107.526 784.242 107.726C784.471 107.919 784.726 108.016 785.007 108.016C785.552 108.016 785.977 107.969 786.281 107.875L786.457 108.868C785.918 109.062 785.291 109.158 784.576 109.158ZM787.898 99.7803H793.137V100.905H789.322L789.164 104.078C790.611 104.184 791.704 104.605 792.442 105.344C792.724 105.625 792.955 106.003 793.137 106.478C793.324 106.952 793.418 107.494 793.418 108.104C793.418 109.305 793.052 110.266 792.319 110.986C791.593 111.713 790.576 112.076 789.27 112.076C788.988 112.076 788.648 112.035 788.25 111.953C787.857 111.877 787.529 111.766 787.266 111.619L787.758 110.538C788.174 110.772 788.678 110.89 789.27 110.89C790.166 110.89 790.846 110.626 791.309 110.099C791.771 109.571 792.003 108.906 792.003 108.104C792.003 106.838 791.408 105.968 790.219 105.493C789.621 105.253 788.93 105.133 788.145 105.133H787.591L787.898 99.7803Z" fill="black"/>
<path d="M729.381 101.176C731.097 101.176 732.454 101.63 733.456 102.537C734.457 103.446 734.958 104.683 734.958 106.252C734.958 108.069 734.387 109.489 733.247 110.512C732.114 111.53 730.499 112.039 728.403 112.039C726.501 112.039 725.007 111.732 723.921 111.119V108.64C724.6 109.016 725.329 109.294 726.086 109.466C726.901 109.659 727.658 109.757 728.357 109.757C729.591 109.757 730.53 109.481 731.174 108.93C731.819 108.378 732.141 107.572 732.141 106.508C732.141 104.475 730.844 103.457 728.252 103.457C727.887 103.457 727.436 103.497 726.901 103.574C726.366 103.644 725.896 103.725 725.493 103.819L724.27 103.097L724.922 94.7844H733.771V97.2167H727.332L726.947 101.431C727.22 101.385 727.549 101.331 727.936 101.269C728.332 101.206 728.815 101.175 729.381 101.175V101.176ZM729.5 91C722.597 91 717 96.5969 717 103.5C717 105.824 717.649 108.102 718.873 110.078C720.096 112.054 721.847 113.649 723.927 114.685V110.857H724.071C724.081 110.861 729.133 113.426 732.426 110.857C735.721 108.286 734.114 104.831 733.551 104.027C732.989 103.224 730.096 101.857 727.605 102.099C725.115 102.34 725.115 102.42 725.115 102.42L725.757 95.0281L733.765 94.951V91.775C732.399 91.2702 730.955 91.0079 729.499 91H729.5ZM733.766 91.775V94.951L725.757 95.0281L725.115 102.42C725.115 102.42 725.115 102.34 727.605 102.099C730.097 101.857 732.99 103.224 733.551 104.027C734.114 104.831 735.721 108.286 732.426 110.857C729.134 113.427 724.079 110.861 724.072 110.857H723.926V114.685C725.657 115.549 727.565 115.999 729.5 116C736.404 116 742 110.403 742 103.5C741.996 100.984 741.234 98.5278 739.812 96.4521C738.39 94.3763 736.376 92.7775 734.031 91.8646C733.943 91.8333 733.854 91.8031 733.766 91.775V91.775Z" fill="black"/>
<path d="M270.016 111.711C274.117 111.711 278.078 110.27 281.898 107.387L284.992 111.57C282.508 113.375 280.457 114.582 278.84 115.191C276.262 116.152 272.723 116.633 268.223 116.633C263.723 116.633 259.75 115.578 256.305 113.469C252.859 111.359 250.234 108.418 248.43 104.645C246.625 100.848 245.723 96.4766 245.723 91.5312C245.723 86.5859 246.625 82.2266 248.43 78.4531C250.234 74.6797 252.859 71.7383 256.305 69.6289C259.75 67.5195 263.77 66.4648 268.363 66.4648C272.746 66.4648 275.816 66.793 277.574 67.4492C279.355 68.1055 280.691 68.7031 281.582 69.2422C282.473 69.7578 283.609 70.5195 284.992 71.5273L281.898 75.7109C278.078 72.8281 274.117 71.3867 270.016 71.3867H269.594C266.969 71.3867 264.508 71.9492 262.211 73.0742C257.969 75.1367 255.004 78.793 253.316 84.043C252.52 86.457 252.121 88.9648 252.121 91.5664C252.121 94.168 252.508 96.6758 253.281 99.0898C254.078 101.48 255.18 103.625 256.586 105.523C259.703 109.648 264.039 111.711 269.594 111.711H270.016ZM316.141 109.953C314.031 114.406 310.598 116.633 305.84 116.633C303.918 116.633 302.184 116.211 300.637 115.367C299.113 114.5 297.906 113.574 297.016 112.59C296.148 111.605 295.422 110.27 294.836 108.582C294.227 106.895 293.922 104.973 293.922 102.816V83.0234H299.582V100.848C299.582 108.371 302.277 112.133 307.668 112.133C309.051 112.133 310.316 111.758 311.465 111.008C313.223 109.883 314.605 108.031 315.613 105.453C315.965 104.562 316.141 103.859 316.141 103.344V83.0234H321.801V116H316.141V109.953ZM346.902 112.098C349.645 112.098 352.281 111.172 354.812 109.32L356.992 113.117C355.141 114.477 353.488 115.402 352.035 115.895C350.582 116.387 348.391 116.633 345.461 116.633C340.633 116.633 336.801 115.074 333.965 111.957C331.152 108.84 329.746 104.691 329.746 99.5117C329.746 94.332 331.152 90.1836 333.965 87.0664C336.801 83.9492 340.633 82.3906 345.461 82.3906C348.391 82.3906 350.582 82.6367 352.035 83.1289C353.488 83.6211 355.141 84.5469 356.992 85.9062L354.812 89.7031C352.281 87.8516 349.645 86.9258 346.902 86.9258H346.691C343.27 86.9258 340.527 88.1562 338.465 90.6172C336.426 93.0781 335.406 96.043 335.406 99.5117C335.406 102.98 336.426 105.945 338.465 108.406C340.527 110.867 343.27 112.098 346.691 112.098H346.902ZM386.805 109.953C384.695 114.406 381.262 116.633 376.504 116.633C374.582 116.633 372.848 116.211 371.301 115.367C369.777 114.5 368.57 113.574 367.68 112.59C366.812 111.605 366.086 110.27 365.5 108.582C364.891 106.895 364.586 104.973 364.586 102.816V83.0234H370.246V100.848C370.246 108.371 372.941 112.133 378.332 112.133C379.715 112.133 380.98 111.758 382.129 111.008C383.887 109.883 385.27 108.031 386.277 105.453C386.629 104.562 386.805 103.859 386.805 103.344V83.0234H392.465V116H386.805V109.953ZM424.527 99.5117C424.527 91.0977 422.02 86.8906 417.004 86.8906C415.645 86.8906 414.414 87.3945 413.312 88.4023C412.211 89.4102 411.367 90.6406 410.781 92.0938C410.055 93.5703 409.691 95.1055 409.691 96.6992V116H404.031V83.0234H409.691V88.2617C410.418 86.5508 411.484 85.1445 412.891 84.043C414.32 82.9414 416.09 82.3906 418.199 82.3906C423.496 82.3906 427.012 85.0273 428.746 90.3008C430.598 85.0273 433.855 82.3906 438.52 82.3906C442.387 82.3906 445.316 83.832 447.309 86.7148C449.324 89.5977 450.332 93.8633 450.332 99.5117V115.965L444.848 116V99.5117C444.848 91.0977 442.34 86.8906 437.324 86.8906C435.965 86.8906 434.734 87.3945 433.633 88.4023C432.531 89.4102 431.688 90.6406 431.102 92.0938C430.375 93.5703 430.012 95.1055 430.012 96.6992V116H424.527V99.5117ZM477.016 86.8906C473.195 86.8906 470.043 89 467.559 93.2188V110.797C468.918 111.664 470.734 112.098 473.008 112.098C479.148 112.098 483.098 109.379 484.855 103.941C485.348 102.348 485.594 100.555 485.594 98.5625C485.594 96.5469 485.336 94.7422 484.82 93.1484C483.977 90.3828 482.395 88.4961 480.074 87.4883C479.113 87.0898 478.094 86.8906 477.016 86.8906ZM467.559 86.8906C469.082 85.1797 470.629 84.0078 472.199 83.375C473.77 82.7188 475.492 82.3906 477.367 82.3906C481.164 82.3906 484.375 83.6797 487 86.2578C488.312 87.5469 489.344 89.293 490.094 91.4961C490.867 93.6758 491.254 96.0312 491.254 98.5625C491.254 105.242 488.758 110.305 483.766 113.75C480.93 115.672 477.883 116.633 474.625 116.633C469.867 116.633 465.625 115.484 461.898 113.188V64.1445H467.559V86.8906ZM510.977 86.8906C507.719 86.8906 505.281 87.875 503.664 89.8438C502.539 91.2031 501.801 93.125 501.449 95.6094H518.5C518.289 93.0547 517.527 90.957 516.215 89.3164C514.879 87.6992 513.133 86.8906 510.977 86.8906ZM522.859 114.066C520.328 115.777 516.906 116.633 512.594 116.633C507.133 116.633 502.926 115.074 499.973 111.957C497.02 108.84 495.543 104.691 495.543 99.5117C495.543 92.7617 497.734 87.875 502.117 84.8516C504.555 83.2109 507.273 82.3906 510.273 82.3906C514.914 82.3906 518.43 83.9609 520.82 87.1016C522.836 89.7969 523.914 93.3359 524.055 97.7188L523.211 99.8281H501.203C501.25 103.719 502.293 106.742 504.332 108.898C506.371 111.031 509.09 112.098 512.488 112.098C515.066 112.098 518.02 111.406 521.348 110.023L522.859 114.066ZM532.211 116V83.0234H537.871V89.0703C538.715 87.2422 539.91 85.6719 541.457 84.3594C543.027 83.0469 544.797 82.3906 546.766 82.3906C548.758 82.3906 550.387 82.7422 551.652 83.4453C552.941 84.125 553.797 84.8516 554.219 85.625L551.828 89.2109C551.5 88.7891 551.184 88.4375 550.879 88.1562C550.012 87.3125 548.734 86.8906 547.047 86.8906C545.359 86.8906 543.836 87.4297 542.477 88.5078C541.117 89.6094 540.039 90.9453 539.242 92.5156C538.445 94.0859 537.988 95.6562 537.871 97.2266V116H532.211Z" fill="black"/>
<path d="M611.609 47.0008C593.978 46.8896 577.628 58.1517 572.545 75.6103C566.29 97.0999 579.617 119.35 601.879 124.597V136L604.26 135.651C629.792 131.913 649.415 112.46 650.917 89.4015C651.898 74.4163 644.092 59.4978 631.495 52.2814C629.099 50.8965 626.549 49.783 623.894 48.9625C619.928 47.6924 615.784 47.0306 611.609 47.0008V47.0008ZM611.29 51.0317H611.339C615.183 51.0317 619.001 51.6288 622.655 52.8006C625.004 53.5266 627.261 54.512 629.381 55.7376C640.674 62.2048 647.666 75.6252 646.78 89.1419C645.449 109.612 628.469 126.996 606.02 131.268V121.315L604.347 121C595.481 119.354 587.566 114.537 582.154 107.493C576.742 100.45 574.223 91.688 575.093 82.927C575.962 74.166 580.156 66.0379 586.853 60.1372C593.55 54.2365 602.265 50.989 611.29 51.0317V51.0317ZM619.054 66.9997C618.457 66.9315 617.852 67.0085 617.292 67.224C616.733 67.4395 616.237 67.7867 615.849 68.2345C615.309 68.9707 614.844 69.7555 614.457 70.5782C613.237 73.3335 612.799 77.2642 614.621 79.4225L614.617 79.4336C616.204 78.9792 617.675 78.2019 618.932 77.153C620.189 76.1041 621.204 74.8074 621.91 73.3483C622.307 72.5396 622.521 71.6567 622.537 70.7599C622.558 69.8182 622.208 68.9044 621.561 68.2054C620.914 67.5064 620.017 67.0751 619.054 66.9997ZM603.613 67.3408C602.67 67.4206 601.79 67.8357 601.141 68.5073C600.492 69.1788 600.119 70.0598 600.092 70.9824C600.13 71.8761 600.358 72.755 600.777 73.5559C601.598 75.0153 602.718 76.2948 604.066 77.3154C605.415 78.3359 606.964 79.0758 608.617 79.4892C610.187 77.2902 609.438 73.3705 608.168 70.6412C607.809 69.862 607.325 69.1435 606.735 68.5127C606.353 68.0823 605.869 67.7502 605.324 67.5459C604.78 67.3415 604.192 67.2711 603.613 67.3408V67.3408ZM594.377 76.6672C591.115 76.797 589.815 80.8428 592.416 82.7674C593.168 83.3088 593.974 83.7797 594.819 84.1765C596.345 84.8195 597.996 85.1294 599.658 85.0846C601.32 85.0397 602.951 84.6412 604.438 83.9169C603.855 82.4348 602.971 81.0833 601.837 79.9437C600.704 78.8042 599.346 77.9003 597.845 77.2865C596.755 76.8171 595.567 76.6049 594.377 76.6672V76.6672ZM623.891 88.5931C622.277 88.6642 620.691 89.0368 619.221 89.6908C619.796 91.1537 620.672 92.4862 621.795 93.6056C622.919 94.7251 624.266 95.6077 625.754 96.1988C626.651 96.5882 627.617 96.7959 628.594 96.8144C629.363 96.9018 630.14 96.7413 630.807 96.3575C631.474 95.9738 631.994 95.3878 632.287 94.6889C632.581 93.9901 632.632 93.2168 632.432 92.4871C632.233 91.7574 631.794 91.1113 631.183 90.6475C628.678 88.9417 626.982 88.5152 623.891 88.5931V88.5931ZM601.647 88.7044C600.518 88.6599 599.233 88.7414 597.91 88.8008C595.784 88.8008 593.241 89.8317 592.229 90.896C589.587 93.158 591.514 97.3892 595.005 96.9924C595.987 96.9979 596.959 96.7862 597.845 96.3731C600.674 95.179 604.035 91.9157 604.438 89.3644C603.746 88.9194 602.773 88.7526 601.644 88.7044H601.647ZM609.579 93.2062C606.298 94.3929 603.647 96.8218 602.241 99.9442C601.84 100.73 601.623 101.592 601.606 102.47C601.53 105.837 605.754 107.517 608.111 105.058C608.644 104.32 609.107 103.538 609.488 102.714C610.712 100.156 611.195 95.5647 609.579 93.2062V93.2062ZM615.271 93.8478C614.498 95.2257 614.056 96.7571 613.98 98.326C613.904 99.8949 614.194 101.46 614.83 102.903C615.168 103.686 615.628 104.416 616.206 105.054C618.4 107.379 623.088 105.744 622.91 102.718C622.899 101.821 622.682 100.938 622.275 100.133C621.631 98.6612 620.674 97.3394 619.466 96.2557C618.259 95.172 616.829 94.3512 615.271 93.8478Z" fill="black"/>
</svg>
